<svg xmlns="http://www.w3.org/2000/svg" viewBox="0 0 512 512"><path d="M474.6 74.3A129.7 129.7 0 00376 29.8c-54 0-88.1 32.3-107.3 59.3-5 7-9.2 14-12.7 20.7-3.5-6.7-7.8-13.7-12.7-20.7C224 62 189.9 29.8 136 29.8c-38.4 0-73.4 15.8-98.6 44.5-24.1 27.3-37.4 64-37.4 103 0 42.7 16.6 82.3 52.3 124.8 32 38 77.9 77 131 122.3 19.9 17 40.4 34.4 62.2 53.5l.6.6a15 15 0 0019.8 0l.6-.6c21.8-19.1 42.3-36.6 62.2-53.5 53.1-45.3 99-84.4 131-122.3C495.4 259.6 512 220 512 177.4c0-39.2-13.3-75.8-37.4-103.1zM309.2 401.6a6948 6948 0 00-53.2 45.7c-18.5-16.2-36.1-31.1-53.2-45.7C98.8 313 30 254.4 30 177.4 30 145.5 40.6 116 59.9 94A100.1 100.1 0 01136 59.8c41.1 0 67.7 25.4 82.8 46.6 13.5 19 20.5 38.3 23 45.7a15 15 0 0028.5 0c2.4-7.4 9.4-26.6 23-45.7 15-21.2 41.6-46.6 82.7-46.6 29.6 0 56.7 12.2 76.1 34.3a125.2 125.2 0 0129.9 83.3c0 77-68.7 135.5-172.8 224.2z"/></svg>